<svg width="567" height="242" viewBox="0 0 567 242" fill="none" xmlns="http://www.w3.org/2000/svg">
<path d="M25.7348 239.82L0 0H46.8401L60.048 151.386L73.5281 0H118.19L130.989 151.386L143.788 0H191.173L165.03 239.82H107.569L95.5866 124.407L84.1489 239.82H25.7348Z" fill="white"/>
<path d="M236.249 242C224.902 242 216.233 239.366 210.241 234.097C204.341 228.828 200.302 221.606 198.123 212.431C195.944 203.256 194.855 192.855 194.855 181.227C194.855 168.782 196.08 158.608 198.531 150.705C200.982 142.711 205.158 136.17 211.058 131.083C217.05 125.996 225.265 121.681 235.704 118.139L265.932 107.783V86.7984C265.932 75.8067 262.347 70.3108 255.175 70.3108C248.639 70.3108 245.372 74.762 245.372 83.6644V95.9279H197.987C197.896 95.2012 197.851 94.2928 197.851 93.2027C197.851 92.0218 197.851 90.7046 197.851 89.2511C197.851 68.9028 202.616 54.5045 212.148 46.0563C221.77 37.5173 236.975 33.2477 257.762 33.2477C268.655 33.2477 278.414 35.2008 287.038 39.107C295.661 42.9223 302.469 48.5998 307.462 56.1396C312.545 63.6794 315.087 72.9906 315.087 84.0732V239.82H266.613V215.565C264.253 224.104 260.35 230.645 254.903 235.187C249.456 239.729 243.238 242 236.249 242ZM255.448 204.119C259.442 204.119 262.165 202.439 263.617 199.078C265.07 195.717 265.796 192.083 265.796 188.177V131.22C259.079 133.945 253.859 137.397 250.137 141.575C246.415 145.663 244.555 151.704 244.555 159.698V185.997C244.555 198.078 248.186 204.119 255.448 204.119Z" fill="white"/>
<path d="M354.308 239.82L321.492 35.4279H370.375L382.085 171.962L395.293 35.4279H444.039L410.679 239.82H354.308Z" fill="white"/>
<path d="M477.268 239.82L444.453 35.4279H493.336L505.046 171.962L518.254 35.4279H567L533.64 239.82H477.268Z" fill="white"/>
</svg>
